<svg xmlns="http://www.w3.org/2000/svg"  viewBox="0 0 48 48" width="48px" height="48px"><radialGradient id="08Pv9E7t7SsydGeo1rJT7a" cx="24" cy="24" r="18" fx="23.905" fy="16.289" gradientUnits="userSpaceOnUse"><stop offset="0" stop-color="#ffe16e"/><stop offset=".629" stop-color="#ffd226"/><stop offset=".75" stop-color="#fdcd23"/><stop offset=".899" stop-color="#f6bd1b"/><stop offset=".999" stop-color="#f0af13"/></radialGradient><circle cx="24" cy="24" r="18" fill="url(#08Pv9E7t7SsydGeo1rJT7a)"/><radialGradient id="08Pv9E7t7SsydGeo1rJT7b" cx="24.001" cy="30.669" r="4.638" fx="23.998" fy="30.843" gradientTransform="matrix(1.7746 0 0 1 -18.591 0)" gradientUnits="userSpaceOnUse"><stop offset=".947" stop-color="#ffe16e"/><stop offset="1" stop-color="#ffe16e" stop-opacity="0"/></radialGradient><path fill="url(#08Pv9E7t7SsydGeo1rJT7b)" d="M31.581,30.438c0,0-1.751,3.562-7.581,3.562c-5.4,0-7.576-3.562-7.576-3.562	s1.427,1.103,7.649,1.103S31.581,30.438,31.581,30.438z"/><radialGradient id="08Pv9E7t7SsydGeo1rJT7c" cx="24.09" cy="25.227" r="9.112" gradientTransform="matrix(1 0 0 1.1502 0 -3.788)" gradientUnits="userSpaceOnUse"><stop offset=".819" stop-color="#cc9000"/><stop offset=".988" stop-color="#fbbc23" stop-opacity=".069"/><stop offset="1" stop-color="#ffbf26" stop-opacity="0"/></radialGradient><path fill="url(#08Pv9E7t7SsydGeo1rJT7c)" d="M24,34c-5.488,0-7.974-3.609-7.974-3.609S18.45,36,24,36s7.974-5.609,7.974-5.609	S29.488,34,24,34z"/><circle cx="30" cy="22" r="4" fill="#fff"/><circle cx="30" cy="22" r="2" fill="#212121"/><circle cx="18" cy="22" r="4" fill="#fff"/><circle cx="18" cy="22" r="2" fill="#212121"/><radialGradient id="08Pv9E7t7SsydGeo1rJT7d" cx="24" cy="30.398" r="7.732" gradientTransform="matrix(1 0 0 .3754 0 18.987)" gradientUnits="userSpaceOnUse"><stop offset="0" stop-color="#1c1911"/><stop offset=".999" stop-color="#171714"/></radialGradient><path fill="url(#08Pv9E7t7SsydGeo1rJT7d)" d="M30.974,29.703c0.543-0.221,0.949,0.52,0.478,0.87C29.801,31.798,27.333,33,24,33	s-5.801-1.202-7.452-2.427c-0.471-0.349-0.065-1.09,0.478-0.87C18.691,30.38,21.028,31,24,31S29.309,30.38,30.974,29.703z"/></svg>