<svg width="195" height="195" viewBox="0 0 195 195" fill="none" xmlns="http://www.w3.org/2000/svg">
<path d="M95.4688 174.688C105.565 174.688 113.75 166.503 113.75 156.406C113.75 146.31 105.565 138.125 95.4688 138.125C85.3723 138.125 77.1875 146.31 77.1875 156.406C77.1875 166.503 85.3723 174.688 95.4688 174.688Z" fill="url(#paint0_linear_4_265)"/>
<path d="M109.687 28.4375H81.25C80.7015 28.437 80.1585 28.5476 79.6539 28.7626C79.1493 28.9776 78.6934 29.2925 78.3138 29.6885C77.9342 30.0844 77.6387 30.5531 77.4451 31.0663C77.2515 31.5796 77.1639 32.1267 77.1875 32.6747L81.25 126.112C81.295 127.159 81.7429 128.148 82.4999 128.873C83.2569 129.597 84.2646 130.001 85.3125 130H105.625C106.673 130.001 107.681 129.597 108.438 128.873C109.195 128.148 109.642 127.159 109.687 126.112L113.75 32.6747C113.774 32.1267 113.686 31.5796 113.492 31.0663C113.299 30.5531 113.003 30.0844 112.624 29.6885C112.244 29.2925 111.788 28.9776 111.284 28.7626C110.779 28.5476 110.236 28.437 109.687 28.4375Z" fill="url(#paint1_linear_4_265)"/>
<defs>
<linearGradient id="paint0_linear_4_265" x1="95.4688" y1="138.125" x2="95.4688" y2="174.688" gradientUnits="userSpaceOnUse">
<stop stop-color="#16A34A"/>
<stop offset="1" stop-color="#083D1C"/>
</linearGradient>
<linearGradient id="paint1_linear_4_265" x1="95.4687" y1="28.4375" x2="95.4687" y2="130" gradientUnits="userSpaceOnUse">
<stop stop-color="#16A34A"/>
<stop offset="1" stop-color="#083D1C"/>
</linearGradient>
</defs>
</svg>
