<svg xmlns="http://www.w3.org/2000/svg"  viewBox="0 0 48 48" width="48px" height="48px"><radialGradient id="cWivy8YyXNVZBgooROaUra" cx="-792" cy="24" r="18" fx="-792.095" fy="16.289" gradientTransform="matrix(-1 0 0 1 -768 0)" gradientUnits="userSpaceOnUse"><stop offset="0" stop-color="#ffe16e"/><stop offset=".629" stop-color="#ffd426"/><stop offset=".72" stop-color="#fdcd23"/><stop offset=".854" stop-color="#f8b919"/><stop offset="1" stop-color="#f09c0c"/></radialGradient><circle cx="24" cy="24" r="18" fill="url(#cWivy8YyXNVZBgooROaUra)"/><linearGradient id="cWivy8YyXNVZBgooROaUrb" x1="24" x2="24" y1="6" y2="40.63" gradientUnits="userSpaceOnUse"><stop offset="0" stop-color="#6e9cff"/><stop offset=".822" stop-color="#6ecfff" stop-opacity="0"/></linearGradient><circle cx="24" cy="24" r="18" fill="url(#cWivy8YyXNVZBgooROaUrb)"/><radialGradient id="cWivy8YyXNVZBgooROaUrc" cx="30" cy="18" r="4.118" gradientTransform="matrix(1 0 0 1.2131 0 -3.836)" gradientUnits="userSpaceOnUse"><stop offset=".608" stop-color="#fff"/><stop offset=".752" stop-color="#fdfdfd"/><stop offset=".818" stop-color="#f5f5f5"/><stop offset=".868" stop-color="#e9e9e9"/><stop offset=".91" stop-color="#d7d7d7"/><stop offset=".946" stop-color="#bfbfbf"/><stop offset=".979" stop-color="#a2a2a2"/><stop offset="1" stop-color="#8c8c8c"/></radialGradient><ellipse cx="30" cy="18" fill="url(#cWivy8YyXNVZBgooROaUrc)" rx="4" ry="5"/><radialGradient id="cWivy8YyXNVZBgooROaUrd" cx="18" cy="18" r="4.118" gradientTransform="matrix(1 0 0 1.2131 0 -3.836)" gradientUnits="userSpaceOnUse"><stop offset=".608" stop-color="#fff"/><stop offset=".752" stop-color="#fdfdfd"/><stop offset=".818" stop-color="#f5f5f5"/><stop offset=".868" stop-color="#e9e9e9"/><stop offset=".91" stop-color="#d7d7d7"/><stop offset=".946" stop-color="#bfbfbf"/><stop offset=".979" stop-color="#a2a2a2"/><stop offset="1" stop-color="#8c8c8c"/></radialGradient><ellipse cx="18" cy="18" fill="url(#cWivy8YyXNVZBgooROaUrd)" rx="4" ry="5"/><path fill="#1c1911" d="M40,21c-1.887,0-2.328,2.013-2.795,4.143c-0.381,1.739-0.812,3.709-1.94,5.185	c-0.288,0.377-0.628,0.731-0.988,1.106C32.818,32.955,31,34.847,31,40v3h8c0-6.304,0.682-7.797,1.404-9.354	C41.188,31.953,42,30.203,42,23.372C42,21.231,40.601,21,40,21L40,21z"/><radialGradient id="cWivy8YyXNVZBgooROaUre" cx="24" cy="34.977" r="4.011" gradientUnits="userSpaceOnUse"><stop offset=".899" stop-color="#ffe16e"/><stop offset="1" stop-color="#ffe16e" stop-opacity="0"/></radialGradient><circle cx="24" cy="35" r="4" fill="url(#cWivy8YyXNVZBgooROaUre)"/><radialGradient id="cWivy8YyXNVZBgooROaUrf" cx="24" cy="32" r="5.099" gradientUnits="userSpaceOnUse"><stop offset="0" stop-color="#1c1911"/><stop offset=".999" stop-color="#171714"/></radialGradient><path fill="url(#cWivy8YyXNVZBgooROaUrf)" d="M28,30c0-2.209-1.791-4-4-4s-4,1.791-4,4c0,0.531,0,3.469,0,4c0,2.209,1.791,4,4,4 s4-1.791,4-4C28,33.469,28,30.531,28,30z"/><radialGradient id="cWivy8YyXNVZBgooROaUrg" cx="-86.46" cy="33.871" r="3.768" gradientTransform="matrix(1.0667 0 0 1.4923 116.267 -15.47)" gradientUnits="userSpaceOnUse"><stop offset=".696" stop-color="#cc9000"/><stop offset="1" stop-color="#cc9000" stop-opacity="0"/></radialGradient><path fill="url(#cWivy8YyXNVZBgooROaUrg)" d="M24,39c-3.707,0-4-3.75-4-3.75S20.216,41,24,41s4-5.75,4-5.75S27.707,39,24,39z"/><radialGradient id="cWivy8YyXNVZBgooROaUrh" cx="24.052" cy="38.621" r="3.036" gradientTransform="matrix(0 1 -1.1547 0 68.648 14.57)" gradientUnits="userSpaceOnUse"><stop offset=".456" stop-color="#db4a59"/><stop offset=".602" stop-color="#d84756"/><stop offset=".729" stop-color="#cd3e4d"/><stop offset=".85" stop-color="#bb303e"/><stop offset=".965" stop-color="#a21b29"/><stop offset=".999" stop-color="#991421"/></radialGradient><path fill="url(#cWivy8YyXNVZBgooROaUrh)" d="M26.181,36.047c-0.328-0.322-0.892-0.741-1.616-0.741c-0.292,0-0.565,0.282-0.565,0.282	s-0.273-0.282-0.565-0.282c-0.724,0-1.288,0.419-1.616,0.741C22.367,36.63,23.139,37,24,37S25.633,36.63,26.181,36.047z"/><path fill="#fff" d="M38,41h-6v-1c0-6,2.513-7.038,4.06-9.065C38.664,27.526,37.9,22,40,22c0.958,0,1,0.855,1,1.372	C41,35.773,38,30.878,38,41z"/><path fill="#1c1911" d="M8,21c-0.601,0-2,0.231-2,2.372c0,6.831,0.812,8.581,1.596,10.274C8.318,35.203,9,36.696,9,43h8v-3	c0-5.153-1.818-7.045-3.278-8.566c-0.36-0.375-0.7-0.729-0.988-1.106c-1.127-1.476-1.559-3.447-1.94-5.185	C10.328,23.013,9.887,21,8,21L8,21z"/><path fill="#fff" d="M10,41h6v-1c0-6-2.513-7.038-4.06-9.065C9.336,27.526,10.1,22,8,22c-0.958,0-1,0.855-1,1.372	C7,35.773,10,30.878,10,41z"/></svg>