<svg width="195" height="195" viewBox="0 0 195 195" fill="none" xmlns="http://www.w3.org/2000/svg">
<path d="M85.3125 130C84.7755 129.997 84.2443 129.888 83.7494 129.679C83.2546 129.471 82.8056 129.167 82.4283 128.784C82.051 128.402 81.7528 127.949 81.5506 127.452C81.3484 126.954 81.2463 126.422 81.25 125.885C81.3028 114.916 81.6563 110.496 83.8541 105.166C86.7522 98.6947 91.082 92.9661 96.5169 88.4122C100.497 85.1539 104.011 81.3632 106.958 77.1469C108.563 74.7392 109.505 71.9506 109.688 69.0625C109.879 67.4158 109.695 65.7472 109.15 64.1815C108.605 62.6158 107.713 61.1937 106.541 60.0215C105.369 58.8493 103.947 57.9573 102.381 57.4124C100.815 56.8676 99.1467 56.6838 97.5 56.875C89.2572 56.875 86.2185 63.1963 85.4344 69.4403C85.3291 70.4423 84.8598 71.3709 84.1155 72.05C83.3713 72.7291 82.4037 73.1116 81.3963 73.125H56.9075C56.3584 73.1205 55.8157 73.0058 55.3117 72.7875C54.8078 72.5692 54.3529 72.2519 53.9739 71.8544C53.595 71.4569 53.2998 70.9873 53.1059 70.4735C52.9119 69.9597 52.8232 69.4122 52.845 68.8634C53.4138 52.7272 57.3828 45.6666 65.1138 38.5369C72.9381 31.3178 82.7491 28.4375 97.5 28.4375C112.556 28.4375 122.245 31.2813 129.898 38.0006C134.038 41.7969 137.287 46.462 139.411 51.6615C141.536 56.8611 142.484 62.4663 142.188 68.0753C142.204 73.9125 140.841 79.6711 138.21 84.8819C134.744 91.1342 130.285 96.7816 125.007 101.603L117.431 108.814C112.714 113.422 109.986 119.691 109.83 126.283C109.745 127.295 109.285 128.239 108.539 128.929C107.793 129.618 106.816 130.003 105.8 130.008L85.3125 130Z" fill="url(#paint0_linear_3_3)"/>
<path d="M95.4688 174.688C105.565 174.688 113.75 166.503 113.75 156.406C113.75 146.31 105.565 138.125 95.4688 138.125C85.3723 138.125 77.1875 146.31 77.1875 156.406C77.1875 166.503 85.3723 174.688 95.4688 174.688Z" fill="url(#paint1_linear_3_3)"/>
<defs>
<linearGradient id="paint0_linear_3_3" x1="97.5122" y1="28.4375" x2="97.5122" y2="130" gradientUnits="userSpaceOnUse">
<stop offset="0.205" stop-color="#EBEBEB"/>
<stop offset="0.425" stop-color="#E6E6E6"/>
<stop offset="0.694" stop-color="#D7D7D7"/>
<stop offset="0.987" stop-color="#BEBEBE"/>
<stop offset="1" stop-color="#BDBDBD"/>
</linearGradient>
<linearGradient id="paint1_linear_3_3" x1="95.4688" y1="138.125" x2="95.4688" y2="174.688" gradientUnits="userSpaceOnUse">
<stop offset="0.205" stop-color="#EBEBEB"/>
<stop offset="0.425" stop-color="#E6E6E6"/>
<stop offset="0.694" stop-color="#D7D7D7"/>
<stop offset="0.987" stop-color="#BEBEBE"/>
<stop offset="1" stop-color="#BDBDBD"/>
</linearGradient>
</defs>
</svg>
